<svg viewBox="0 0 11.02 92.71" xmlns="http://www.w3.org/2000/svg" xmlns:xlink="http://www.w3.org/1999/xlink" overflow="hidden"><defs><linearGradient x1="-2761.01" y1="46.43" x2="-2759.66" y2="46.43" gradientUnits="userSpaceOnUse" id="linear-gradient" gradientTransform="matrix(-1 0 0 1 -2754.18 0)"><stop offset="0" stop-color="#B6C734"/><stop offset="0.3" stop-color="#D5CE26"/><stop offset="0.42" stop-color="#C0C42C"/><stop offset="0.67" stop-color="#99B237"/><stop offset="0.88" stop-color="#81A73E"/><stop offset="1" stop-color="#78A340"/></linearGradient><linearGradient x1="2036.91" y1="32.17" x2="2039.57" y2="32.17" gradientUnits="userSpaceOnUse" id="linear-gradient-2" gradientTransform="translate(-2030.12 0)"><stop offset="0" stop-color="#029B49"/><stop offset="0.21" stop-color="#A2BB3A"/><stop offset="1" stop-color="#78A340"/></linearGradient><linearGradient x1="-3973.01" y1="-1158.04" x2="-3973.59" y2="-1163.11" gradientUnits="userSpaceOnUse" id="linear-gradient-3" gradientTransform="matrix(-0.99 -0.15 -0.15 0.99 -4101.69 540.14)"><stop offset="0" stop-color="#029B49"/><stop offset="0.37" stop-color="#ACBF37"/><stop offset="1" stop-color="#78A340"/></linearGradient><linearGradient x1="2629.78" y1="-1105.83" x2="2630.1" y2="-1108.66" gradientUnits="userSpaceOnUse" id="linear-gradient-4" gradientTransform="matrix(0.98796 0.15471 -0.15471 0.98796 -2766.08 694.68)"><stop offset="0" stop-color="#6B843E"/><stop offset="0.26" stop-color="#647E3B"/><stop offset="0.63" stop-color="#516F34"/><stop offset="0.98" stop-color="#385B2B"/></linearGradient><linearGradient x1="-3947.63" y1="-1103.95" x2="-3948.21" y2="-1109.03" xlink:href="#linear-gradient-4" id="linear-gradient-5" gradientTransform="matrix(-0.99 -0.15 -0.15 0.99 -4068.22 490.64)"></linearGradient><linearGradient x1="1384.18" y1="-285.77" x2="1383.51" y2="-291.68" gradientUnits="userSpaceOnUse" id="linear-gradient-6" gradientTransform="matrix(0.98796 -0.15471 0.15471 0.98796 -1314.47 540.14)"><stop offset="0" stop-color="#029B49"/><stop offset="0.37" stop-color="#D3CD27"/><stop offset="1" stop-color="#78A340"/></linearGradient><linearGradient x1="-2065.74" y1="-337.45" x2="-2065.37" y2="-340.75" xlink:href="#linear-gradient-4" id="linear-gradient-7" gradientTransform="matrix(-0.99 0.15 0.15 0.99 -1980.43 694.68)"></linearGradient><linearGradient x1="747.93" y1="-335.29" x2="747.26" y2="-341.2" xlink:href="#linear-gradient-4" id="linear-gradient-8" gradientTransform="matrix(0.98796 -0.15471 0.15471 0.98796 -678.29 490.64)"></linearGradient><linearGradient x1="815.38" y1="-2240.73" x2="814.74" y2="-2243.04" xlink:href="#linear-gradient-3" id="linear-gradient-9" gradientTransform="matrix(0.58 -0.82 -0.82 -0.58 -2295.02 -583.85)"></linearGradient><linearGradient x1="-3939.28" y1="-1477.3" x2="-3939.87" y2="-1482.48" xlink:href="#linear-gradient-3" id="linear-gradient-10" gradientTransform="matrix(-0.95 -0.31 -0.31 0.95 -4199.6 241.53)"></linearGradient><linearGradient x1="2579.01" y1="-1366.13" x2="2579.33" y2="-1369.02" xlink:href="#linear-gradient-4" id="linear-gradient-11" gradientTransform="matrix(0.951272 0.308353 -0.308353 0.951272 -2870.59 553.68)"></linearGradient><linearGradient x1="-3896.97" y1="-1364.77" x2="-3897.56" y2="-1369.95" xlink:href="#linear-gradient-4" id="linear-gradient-12" gradientTransform="matrix(-0.95 -0.31 -0.31 0.95 -4124.62 147.55)"></linearGradient><linearGradient x1="-2749.59" y1="-251.6" x2="-2746.91" y2="-251.6" xlink:href="#linear-gradient-2" id="linear-gradient-13" gradientTransform="matrix(-0.99 -0.16 -0.16 0.99 -2749.96 -130.67)"></linearGradient><linearGradient x1="-3975.07" y1="-1151.31" x2="-3975.64" y2="-1156.38" xlink:href="#linear-gradient-3" id="linear-gradient-14"></linearGradient><linearGradient x1="2631.83" y1="-1099.1" x2="2632.15" y2="-1101.93" xlink:href="#linear-gradient-4" id="linear-gradient-15"></linearGradient><linearGradient x1="-3949.69" y1="-1097.22" x2="-3950.26" y2="-1102.3" xlink:href="#linear-gradient-4" id="linear-gradient-16" gradientTransform="matrix(-0.99 -0.15 -0.15 0.99 -4068.22 490.64)"></linearGradient><linearGradient x1="-2759.95" y1="20.59" x2="-2757.29" y2="20.59" xlink:href="#linear-gradient-2" id="linear-gradient-17" gradientTransform="matrix(-1 0 0 1 -2754.18 0)"></linearGradient><linearGradient x1="-2758.28" y1="16.38" x2="-2758.89" y2="14.15" xlink:href="#linear-gradient-3" id="linear-gradient-18" gradientTransform="matrix(-1 0 0 1 -2754.18 0)"></linearGradient><linearGradient x1="1386.95" y1="-304.27" x2="1386.28" y2="-310.18" xlink:href="#linear-gradient-6" id="linear-gradient-19"></linearGradient><linearGradient x1="-2068.51" y1="-355.95" x2="-2068.14" y2="-359.25" xlink:href="#linear-gradient-4" id="linear-gradient-20" gradientTransform="matrix(-0.99 0.15 0.15 0.99 -1980.43 694.68)"></linearGradient><linearGradient x1="750.7" y1="-353.79" x2="750.03" y2="-359.7" xlink:href="#linear-gradient-4" id="linear-gradient-21" gradientTransform="matrix(0.98796 -0.15471 0.15471 0.98796 -678.29 490.64)"></linearGradient><linearGradient x1="830.6" y1="-2229.85" x2="829.96" y2="-2232.17" xlink:href="#linear-gradient-3" id="linear-gradient-22" gradientTransform="matrix(0.58 -0.82 -0.82 -0.58 -2295.02 -583.85)"></linearGradient><linearGradient x1="1942.1" y1="358.82" x2="1944.78" y2="358.82" xlink:href="#linear-gradient-2" id="linear-gradient-23" gradientTransform="matrix(0.98245 -0.186524 0.186524 0.98245 -1969.93 16.65)"></linearGradient><linearGradient x1="-3978.19" y1="-1136.5" x2="-3978.76" y2="-1141.58" xlink:href="#linear-gradient-3" id="linear-gradient-24"></linearGradient><linearGradient x1="2634.95" y1="-1084.29" x2="2635.27" y2="-1087.12" xlink:href="#linear-gradient-4" id="linear-gradient-25"></linearGradient><linearGradient x1="-3952.81" y1="-1082.42" x2="-3953.38" y2="-1087.49" xlink:href="#linear-gradient-4" id="linear-gradient-26" gradientTransform="matrix(-0.99 -0.15 -0.15 0.99 -4068.22 490.64)"></linearGradient><linearGradient x1="1381.41" y1="-273.62" x2="1380.74" y2="-279.53" xlink:href="#linear-gradient-6" id="linear-gradient-27"></linearGradient><linearGradient x1="-2062.97" y1="-325.3" x2="-2062.6" y2="-328.6" xlink:href="#linear-gradient-4" id="linear-gradient-28" gradientTransform="matrix(-0.99 0.15 0.15 0.99 -1980.43 694.68)"></linearGradient><linearGradient x1="745.16" y1="-323.14" x2="744.49" y2="-329.05" xlink:href="#linear-gradient-4" id="linear-gradient-29" gradientTransform="matrix(0.98796 -0.15471 0.15471 0.98796 -678.29 490.64)"></linearGradient><linearGradient x1="804.72" y1="-2247.18" x2="804.08" y2="-2249.49" xlink:href="#linear-gradient-3" id="linear-gradient-30" gradientTransform="matrix(0.58 -0.82 -0.82 -0.58 -2295.02 -583.85)"></linearGradient><linearGradient x1="-3941.81" y1="-1464.91" x2="-3942.39" y2="-1470.09" xlink:href="#linear-gradient-3" id="linear-gradient-31" gradientTransform="matrix(-0.95 -0.31 -0.31 0.95 -4199.6 241.53)"></linearGradient><linearGradient x1="2581.53" y1="-1353.73" x2="2581.86" y2="-1356.62" xlink:href="#linear-gradient-4" id="linear-gradient-32" gradientTransform="matrix(0.951272 0.308353 -0.308353 0.951272 -2870.59 553.68)"></linearGradient><linearGradient x1="-3899.5" y1="-1352.37" x2="-3900.09" y2="-1357.55" xlink:href="#linear-gradient-4" id="linear-gradient-33" gradientTransform="matrix(-0.95 -0.31 -0.31 0.95 -4124.62 147.55)"></linearGradient><linearGradient x1="-2750.55" y1="-236.01" x2="-2747.86" y2="-236.01" xlink:href="#linear-gradient-2" id="linear-gradient-34" gradientTransform="matrix(-0.99 -0.16 -0.16 0.99 -2749.96 -130.67)"></linearGradient><linearGradient x1="-239.25" y1="175.67" x2="-236.57" y2="175.67" xlink:href="#linear-gradient-2" id="linear-gradient-35" gradientTransform="matrix(0.99 -0.16 0.16 0.99 213.53 -130.67)"></linearGradient><linearGradient x1="1378.06" y1="-261.42" x2="1377.39" y2="-267.33" xlink:href="#linear-gradient-6" id="linear-gradient-36"></linearGradient><linearGradient x1="-2059.62" y1="-313.1" x2="-2059.25" y2="-316.4" xlink:href="#linear-gradient-4" id="linear-gradient-37" gradientTransform="matrix(-0.99 0.15 0.15 0.99 -1980.43 694.68)"></linearGradient><linearGradient x1="741.8" y1="-310.94" x2="741.14" y2="-316.85" xlink:href="#linear-gradient-4" id="linear-gradient-38" gradientTransform="matrix(0.98796 -0.15471 0.15471 0.98796 -678.29 490.64)"></linearGradient><linearGradient x1="793.62" y1="-2253.25" x2="792.99" y2="-2255.57" xlink:href="#linear-gradient-3" id="linear-gradient-39" gradientTransform="matrix(0.58 -0.82 -0.82 -0.58 -2295.02 -583.85)"></linearGradient><linearGradient x1="-3947.59" y1="-1448.36" x2="-3948.18" y2="-1453.54" xlink:href="#linear-gradient-3" id="linear-gradient-40" gradientTransform="matrix(-0.95 -0.31 -0.31 0.95 -4199.6 241.53)"></linearGradient><linearGradient x1="2587.32" y1="-1337.18" x2="2587.64" y2="-1340.07" xlink:href="#linear-gradient-4" id="linear-gradient-41" gradientTransform="matrix(0.951272 0.308353 -0.308353 0.951272 -2870.59 553.68)"></linearGradient><linearGradient x1="-3905.28" y1="-1335.82" x2="-3905.87" y2="-1341" xlink:href="#linear-gradient-4" id="linear-gradient-42" gradientTransform="matrix(-0.95 -0.31 -0.31 0.95 -4124.62 147.55)"></linearGradient><linearGradient x1="1376.15" y1="-238.3" x2="1375.48" y2="-244.21" xlink:href="#linear-gradient-6" id="linear-gradient-43"></linearGradient><linearGradient x1="-2057.71" y1="-289.99" x2="-2057.34" y2="-293.28" xlink:href="#linear-gradient-4" id="linear-gradient-44" gradientTransform="matrix(-0.99 0.15 0.15 0.99 -1980.43 694.68)"></linearGradient><linearGradient x1="739.9" y1="-287.82" x2="739.23" y2="-293.73" xlink:href="#linear-gradient-4" id="linear-gradient-45" gradientTransform="matrix(0.98796 -0.15471 0.15471 0.98796 -678.29 490.64)"></linearGradient><linearGradient x1="775.68" y1="-2267.95" x2="775.05" y2="-2270.27" xlink:href="#linear-gradient-3" id="linear-gradient-46" gradientTransform="matrix(0.58 -0.82 -0.82 -0.58 -2295.02 -583.85)"></linearGradient></defs><g><g id="Layer_2"><g id="Layer_1-2"><path d="M3.26 66.58C3.28132 65.1807 3.3949 63.7843 3.6 62.4 3.71 61.7 3.82 61 3.94 60.29 4 59.94 4.06 59.58 4.11 59.23 4.16 58.88 4.2 58.52 4.25 58.16 4.45 56.73 4.59 55.27 4.74 53.8 5.01 50.86 5.23 47.87 5.39 44.87 5.55 41.87 5.66 38.87 5.72 35.93 5.78 32.99 5.79 30.08 5.72 27.27 5.72 26.57 5.72 25.8733 5.72 25.18 5.72 24.49 5.66 23.81 5.63 23.18 5.6 22.55 5.55 21.84 5.51 21.18L5.44 20.18C5.44 19.86 5.37 19.54 5.34 19.18 5.31 18.82 5.27 18.55 5.24 18.24L5.09 17.3 5 16.87 4.92 16.42C4.86 16.11 4.81 15.81 4.75 15.5 4.69 15.19 4.67 14.89 4.63 14.59 4.59 14.29 4.55 13.99 4.53 13.7 4.53 13.11 4.43 12.53 4.4 11.97 4.4 10.84 4.28 9.75 4.32 8.72 4.32 8.21 4.32 7.72 4.39 7.22 4.46 6.72 4.46 6.22 4.48 5.8 4.62 4 4.8 2.37 5 1.06 5 0.89 5 0.72 5 0.55 5.06632 0.388489 5.19669 0.261742 5.36 0.2 5.50528 0.150676 5.66586 0.19885 5.76 0.32L5.76 0.44C5.76 1.75 5.27 3.99 5.27 5.81 5.27 6.27 5.27 6.74 5.27 7.22 5.27 7.7 5.27 8.22 5.27 8.71 5.27 9.2 5.27 9.71 5.27 10.28 5.27 10.85 5.27 11.36 5.33 11.92 5.39 12.48 5.41 13.05 5.45 13.63 5.45 13.92 5.52 14.21 5.55 14.5 5.58 14.79 5.61 15.09 5.67 15.38 5.73 15.67 5.77 15.97 5.83 16.27L5.98 17.2C6.04 17.51 6.09 17.82 6.14 18.13 6.19 18.44 6.21 18.78 6.24 19.13 6.27 19.48 6.31 19.78 6.34 20.13 6.37 20.48 6.34 20.79 6.41 21.13 6.41 21.8 6.51 22.47 6.53 23.13 6.55 23.79 6.58 24.49 6.61 25.19 6.64 25.89 6.61 26.58 6.61 27.29 6.61 30.11 6.61 33.02 6.61 35.98 6.61 38.94 6.44 41.98 6.29 44.98 6.14 47.98 5.91 50.98 5.64 53.98 5.49 55.46 5.35 56.92 5.15 58.36 5.15 58.72 5.05 59.08 5.01 59.44 4.97 59.8 4.89 60.16 4.84 60.51 4.73 61.22 4.61 61.92 4.5 62.62 4.30698 63.9718 4.2001 65.3346 4.18 66.7 4.18 68.04 4.18 69.36 4.27 70.64 4.43 73.2 4.73 75.64 5.04 77.85 5.12 78.41 5.2 78.95 5.29 79.48 5.29 79.75 5.38 80.01 5.41 80.27 5.44 80.53 5.48 80.79 5.51 81.05 5.62 82.05 5.73 83.05 5.83 83.96 6.03 85.78 6.16 87.38 6.2 88.71 6.25294 89.731 6.18582 90.7547 6 91.76 5.96817 91.9154 5.92811 92.0689 5.88 92.22L5.82 92.4 5.76 92.54 5.64 92.79 5.73 92.53 5.73 92.38C5.73 92.38 5.73 92.27 5.73 92.2 5.8354 92.0177 5.9257 91.827 6 91.63 6.079 90.63 6.05219 89.6244 5.92 88.63 5.78 87.33 5.51 85.76 5.17 83.96L4.62 81.08C4.52 80.58 4.44 80.08 4.37 79.52L4.14 77.88C3.82 75.64 3.52 73.2 3.36 70.61 3.28 69.29 3.24 68 3.26 66.58Z" fill="url(#linear-gradient)"/><path d="M3.35 69.82 3.35 70.63 3.43 71.43 3.6 73C3.66 73.54 3.69 74.08 3.76 74.61L4 76.25C4.13333 77.3233 4.28 78.3933 4.44 79.46L4.7 81.06 5 82.65C5.1 83.19 5.22 83.71 5.3 84.25L5.56 85.85 5.82 87.45C5.90726 87.9799 5.96734 88.5139 6 89.05 6 89.59 6.11 90.13 6.09 90.67 6.11172 91.2116 6.08159 91.7541 6 92.29L6 92.29 5.87 92.7 5.71 92.7 5.89 92.3 5.89 92.3C5.96263 92.0701 6.02271 91.8364 6.07 91.6L6.16 90.89C6.22299 90.4161 6.24974 89.938 6.24 89.46L6.24 88.74C6.24 88.51 6.24 88.26 6.24 88.02L6 86.56 5.8 83.69 5.47 80.82C5.35 79.87 5.18 78.92 5.04 77.97L4.66 75.1C4.52 74.1 4.46 73.19 4.36 72.23L4.23 70.8C4.23 70.3 4.23 69.8 4.17 69.35 4.17 68.35 4.11 67.44 4.1 66.46 4.09 65.48 4.16 64.52 4.29 63.57 4.47 61.64 4.91 59.77 5.09 57.85 5.27 55.93 5.55 54.03 5.64 52.11L6.04 46.36 6.14 44.92 6.14 43.49 6.24 40.61 6.34 37.73C6.34 36.73 6.41 35.82 6.4 34.86L6.4 29.07C6.4 27.14 6.4 25.24 6.29 23.31 6.24 22.31 6.19 21.39 6.12 20.44 6.12 19.97 6.04 19.44 5.99 19.01L6 18.3C6 18.08 5.93 17.83 5.89 17.6 5.75 16.6 5.54 15.71 5.43 14.74 5.32 13.77 5.24 12.81 5.18 11.84 5.12 10.87 5.1 9.91 5.09 9 5.08 8.09 5 7 5 6.07 5 4.07 5.4 2.22 5.51 0.32L5.51 0.43 5.51 0.43 5.51 0.43 5.42 0.43C5.42 0.43 5.42 0.43 5.37 0.43L5.31 0.46 5.21 0.62 5.21 0.62C5.04 1.98 4.92 3.36 4.77 4.73 4.62 6.1 4.56 7.44 4.5 8.8L4.5 10.87 4.5 11.87 4.57 12.87C4.69097 14.2576 4.89467 15.6367 5.18 17 5.29 17.67 5.41 18.37 5.46 19.06 5.51 19.75 5.6 20.43 5.64 21.13 5.72667 22.51 5.79 23.89 5.83 25.27L5.83 27.34 5.83 29.41 5.83 33.55 5.83 35.62C5.83 36.31 5.78 37 5.76 37.69L5.59 41.82C5.52 43.2 5.51 44.58 5.38 45.96L5.07 50.09C4.96 51.47 4.88 52.84 4.74 54.22L4.26 58.34C4.09 59.71 3.83 61.08 3.62 62.44L3.38 64.5 3.27 66.57ZM3.35 64.52 3.57 62.46C3.77 61.09 4.02 59.73 4.18 58.36L4.63 54.24C4.76 52.87 4.83 51.49 4.94 50.11L5.23 46C5.35 44.62 5.35 43.25 5.41 41.87L5.55 37.73C5.55 37.04 5.61 36.35 5.61 35.67L5.61 27.37 5.61 25.3C5.61 23.93 5.49 22.54 5.39 21.17 5.39 20.49 5.28 19.8 5.21 19.11 5.14 18.42 5.03 17.76 4.91 17.11 4.64002 15.7493 4.45301 14.3734 4.35 12.99L4.27 11.99 4.27 10.99 4.14 8.8C4.19 7.42 4.25 6.03 4.4 4.65 4.55 3.27 4.66 1.91 4.82 0.53L4.82 0.53C4.87045 0.433987 4.93078 0.343498 5 0.26 5.02241 0.220419 5.04925 0.183516 5.08 0.15 5.12486 0.109537 5.1754 0.0758472 5.23 0.05L5.23 0.05 5.5 0.05 5.63 0.05C5.69212 0.0577728 5.75277 0.0746189 5.81 0.1L5.94 0.22 5.94 0.22 5.94 0.33C5.84 2.27 5.44 4.17 5.46 6.07 5.46 7.07 5.46 7.98 5.53 8.95 5.6 9.92 5.53 10.87 5.61 11.83 5.69 12.79 5.74 13.74 5.87 14.68 6 15.62 6.2 16.58 6.35 17.53 6.35 17.77 6.43 17.99 6.46 18.25L6.54 18.97C6.54 19.45 6.65 19.92 6.68 20.42 6.75 21.42 6.81 22.34 6.86 23.3 6.96 25.21 7.01 27.16 6.98 29.07L6.98 34.84C6.98 35.84 6.98 36.77 6.9 37.73L6.8 40.6 6.68 43.48 6.62 44.93 6.51 46.37 6.07 52.12C6 54 5.69 56 5.49 57.87 5.29 59.74 4.85 61.69 4.66 63.59 4.53 64.59 4.51 65.5 4.45 66.46 4.39 67.42 4.45 68.38 4.45 69.33 4.45 69.81 4.45 70.33 4.45 70.76L4.57 72.2C4.66 73.2 4.72 74.12 4.85 75.07L5.21 77.93C5.34 78.93 5.5 79.83 5.62 80.79L6 83.66 6.22 86.54 6.35 88C6.35 88.24 6.35 88.47 6.35 88.73L6.35 89.45C6.3561 89.9349 6.32602 90.4196 6.26 90.9L6.16 91.62C6.11759 91.8491 6.0642 92.076 6 92.3L6 92.3 5.82 92.7 5.67 92.7 5.8 92.29 5.8 92.29C5.86472 92.031 5.9049 91.7665 5.92 91.5L5.92 90.69C5.92 90.15 5.86 89.62 5.85 89.08 5.80863 88.5433 5.73853 88.0092 5.64 87.48L5.39 85.88 5.14 84.28C5.06 83.75 4.95 83.22 4.85 82.69L4.55 81.09 4.3 79.49C4.17 78.4 4 77.33 3.9 76.25L3.7 74.64C3.63 74.11 3.6 73.57 3.55 73.03L3.41 71.42 3.34 70.62 3.34 69.81 3.27 66.58Z" fill="#0B6333"/><path d="M3.26 66.58C3.28132 65.1807 3.3949 63.7843 3.6 62.4 3.71 61.7 3.82 61 3.94 60.29 4 59.94 4.06 59.58 4.11 59.23 4.16 58.88 4.2 58.52 4.25 58.16 4.45 56.73 4.59 55.27 4.74 53.8 5.01 50.86 5.23 47.87 5.39 44.87 5.55 41.87 5.66 38.87 5.72 35.93 5.78 32.99 5.79 30.08 5.72 27.27 5.72 26.57 5.72 25.8733 5.72 25.18 5.72 24.49 5.66 23.81 5.63 23.18 5.6 22.55 5.55 21.84 5.51 21.18L5.44 20.18C5.44 19.86 5.37 19.54 5.34 19.18 5.31 18.82 5.27 18.55 5.24 18.24L5.09 17.3 5 16.87 4.92 16.42C4.86 16.11 4.81 15.81 4.75 15.5 4.69 15.19 4.67 14.89 4.63 14.59 4.59 14.29 4.55 13.99 4.53 13.7 4.53 13.11 4.43 12.53 4.4 11.97 4.4 10.84 4.28 9.75 4.32 8.72 4.32 8.21 4.32 7.72 4.39 7.22 4.46 6.72 4.46 6.22 4.48 5.8 4.62 4 4.8 2.37 5 1.06 5 0.89 5 0.72 5 0.55 5.06632 0.388489 5.19669 0.261742 5.36 0.2 5.50528 0.150676 5.66586 0.19885 5.76 0.32L5.76 0.44C5.76 0.49 5.76 0.54 5.76 0.6 5.68107 0.677948 5.61672 0.769389 5.57 0.87 5.57 1.03 5.57 1.2 5.51 1.38 5.34 2.69 5.16 4.28 5 6.11L4.9 7.53C4.9 8.02 4.9 8.53 4.83 9.03 4.83 10.03 4.83 11.15 4.91 12.28 4.91 12.85 4.99 13.43 5.04 14.02 5.04 14.31 5.11 14.61 5.14 14.91 5.17 15.21 5.21 15.51 5.26 15.82L5.42 16.74C5.42 16.89 5.48 17.04 5.5 17.19L5.58 17.65 5.74 18.59C5.74 18.9 5.81 19.21 5.84 19.53L5.94 20.53 6.01 21.53C6.01 22.19 6.11 22.85 6.13 23.53 6.15 24.21 6.19 24.89 6.22 25.53 6.25 26.17 6.22 26.91 6.22 27.61 6.22 30.42 6.22 33.32 6.22 36.27 6.22 39.22 6.04 42.22 5.88 45.21 5.72 48.2 5.51 51.21 5.24 54.14 5.11 55.59 5 57 4.78 58.48 4.78 58.84 4.69 59.19 4.65 59.55 4.61 59.91 4.53 60.26 4.48 60.61 4.37 61.32 4.25 62.02 4.14 62.72 3.93607 64.1045 3.82249 65.5008 3.8 66.9 3.8 68.27 3.8 69.6 3.89 70.9 4.05 73.49 4.35 75.9 4.67 78.17 4.75 78.73 4.83 79.28 4.9 79.81 4.97 80.34 5.05 80.86 5.15 81.37L5.7 84.25C5.91 85.38 6.09 86.43 6.24 87.37 6.24 87.79 6.24 88.2 6.29 88.59 6.34294 89.611 6.27582 90.6347 6.09 91.64 6.05817 91.7953 6.01811 91.9489 5.97 92.1L5.91 92.28 5.85 92.42 5.73 92.67 5.82 92.41 5.82 92.26C5.82 92.26 5.82 92.15 5.82 92.08 5.88937 91.9339 5.94949 91.7836 6 91.63 6.079 90.63 6.05219 89.6244 5.92 88.63 5.78 87.33 5.51 85.76 5.17 83.96L4.62 81.08C4.52 80.58 4.44 80.08 4.37 79.52L4.14 77.88C3.82 75.64 3.52 73.2 3.36 70.61 3.28 69.29 3.24 68 3.26 66.58Z" fill="#092E1E" opacity="0.5"/><path d="M7 30.46C7 30.46 7 30.58 7 30.77 6.98602 31.0465 6.98602 31.3235 7 31.6 7.00527 31.9899 7.06588 32.3771 7.18 32.75 7.25062 32.9591 7.35537 33.1551 7.49 33.33 7.64687 33.5105 7.85695 33.6365 8.09 33.69 8.32905 33.7546 8.58095 33.7546 8.82 33.69 9.03254 33.6248 9.20717 33.472 9.3 33.27 9.3723 33.0903 9.3723 32.8897 9.3 32.71 9.23596 32.5368 9.0745 32.4186 8.89 32.41 8.72231 32.384 8.55072 32.412 8.4 32.49 8.29749 32.5563 8.22554 32.6606 8.2 32.78 8.17961 32.8553 8.17961 32.9347 8.2 33.01 8.19588 33.0332 8.19588 33.0569 8.2 33.08 8.19684 33.0568 8.19684 33.0332 8.2 33.01 8.18136 32.9345 8.18136 32.8555 8.2 32.78 8.21733 32.6493 8.28562 32.5306 8.39 32.45 8.55067 32.3487 8.74153 32.3063 8.93 32.33 9.16132 32.3283 9.37072 32.4666 9.46 32.68 9.55199 32.8869 9.55199 33.1231 9.46 33.33 9.35415 33.5718 9.15057 33.7572 8.9 33.84 8.6319 33.9156 8.3481 33.9156 8.08 33.84 7.81319 33.7789 7.5741 33.6312 7.4 33.42 7.22165 33.2422 7.08503 33.027 7 32.79 6.89614 32.4056 6.84897 32.0081 6.86 31.61 6.86798 31.3319 6.89471 31.0546 6.94 30.78 6.95447 30.6724 6.9745 30.5656 7 30.46Z" stroke="#0B6333" stroke-width="1.23" stroke-miterlimit="10" fill="url(#linear-gradient-2)"/><path d="M4.41 6.26C4.41 6.26 1.93 7 2.14 8.76 2.25 9.73 4.3 9.2 4.41 6.26Z" fill="url(#linear-gradient-3)"/><path d="M4.42 6.6C4.42839 6.72653 4.42839 6.85347 4.42 6.98 4.41133 7.14577 4.3845 7.31008 4.34 7.47 4.28432 7.65201 4.2141 7.82925 4.13 8 4.03882 8.21177 3.92482 8.41296 3.79 8.6 3.62561 8.8106 3.42183 8.98721 3.19 9.12 2.90818 9.30366 2.54971 9.32272 2.25 9.17 1.95 9 2 8.69 2 8.45 2.01886 8.20112 2.09045 7.9591 2.21 7.74 2.31944 7.52687 2.46881 7.33676 2.65 7.18 2.80734 7.03127 2.97806 6.89736 3.16 6.78 3.44347 6.607 3.74533 6.46613 4.06 6.36 4.17774 6.3163 4.29795 6.27957 4.42 6.25 4.42 6.25 4.41 6.38 4.42 6.6ZM4.08 6.42C3.79249 6.55444 3.51799 6.71512 3.26 6.9 3.09765 7.02247 2.94701 7.15972 2.81 7.31 2.66191 7.46803 2.5373 7.64652 2.44 7.84 2.34491 8.03713 2.2905 8.25139 2.28 8.47 2.27374 8.57658 2.27374 8.68342 2.28 8.79 2.28 8.85 2.28 8.92 2.34 8.93 2.36567 8.96272 2.40047 8.98708 2.44 9 2.58 9.11 2.85 9.06 3.05 9 3.25324 8.88445 3.43302 8.73181 3.58 8.55 3.71237 8.37715 3.82948 8.19312 3.93 8 4.01724 7.82598 4.09079 7.64544 4.15 7.46 4.2446 7.18673 4.31487 6.90564 4.36 6.62L4.41 6.29Z" fill="#0B6333"/><g opacity="0.5"><path d="M4.18 6.48C4.04272 6.57016 3.91235 6.67043 3.79 6.78 3.51758 7.00506 3.27853 7.26768 3.08 7.56 2.97893 7.69766 2.89183 7.84506 2.82 8 2.75092 8.14393 2.69729 8.29477 2.66 8.45 2.63171 8.55833 2.61165 8.66864 2.6 8.78 2.6 8.86 2.6 8.91 2.6 8.91 2.58701 8.75694 2.58701 8.60306 2.6 8.45 2.62119 8.29561 2.6615 8.14445 2.72 8 2.7955 7.83024 2.88939 7.66928 3 7.52 3.20927 7.21713 3.46986 6.95316 3.77 6.74 3.89787 6.64018 4.03519 6.5531 4.18 6.48Z" fill="url(#linear-gradient-4)"/></g><g opacity="0.3"><path d="M3.15 7.05C2.82265 7.20264 2.54274 7.44108 2.34 7.74L2.34 7.74C2.84731 7.03129 3.5753 6.5108 4.41 6.26 4.40462 7.00197 4.20462 7.72953 3.83 8.37 4.08163 7.92736 4.18336 7.41521 4.12 6.91 4.12 6.91 2.54 7.8 2.65 9.2L2.51 9.2 2.51 9.2C2.40805 8.42494 2.64078 7.64313 3.15 7.05Z" fill="url(#linear-gradient-5)"/></g><path d="M6.4 38.49C6.4 38.49 9.29 39.34 9.05 41.4 8.92 42.52 6.54 41.9 6.4 38.49Z" fill="url(#linear-gradient-6)"/><path d="M6.46 38.87C6.50933 39.21 6.58966 39.5447 6.7 39.87 6.7673 40.086 6.85088 40.2966 6.95 40.5 7.06854 40.7244 7.20568 40.9385 7.36 41.14 7.5339 41.3556 7.74782 41.5356 7.99 41.67 8.20945 41.8173 8.48968 41.84 8.73 41.73 8.7757 41.7036 8.81364 41.6657 8.84 41.62 8.84 41.62 8.84 41.51 8.91 41.45 8.91857 41.3235 8.91857 41.1965 8.91 41.07 8.89348 40.8124 8.82547 40.5608 8.71 40.33 8.59378 40.1033 8.4456 39.8945 8.27 39.71 8.10679 39.535 7.92581 39.3775 7.73 39.24 7.41514 39.0221 7.0803 38.8346 6.73 38.68L6.33 38.51ZM6.82 38.61C7.16936 38.7384 7.50448 38.9026 7.82 39.1 8.03339 39.235 8.2342 39.389 8.42 39.56 8.6241 39.7451 8.79343 39.9652 8.92 40.21 9.06522 40.452 9.16043 40.7206 9.2 41 9.2 41.28 9.2 41.62 8.9 41.88 8.7288 41.9824 8.52702 42.0214 8.33 41.99 8.15388 41.9663 7.98406 41.9086 7.83 41.82 7.56217 41.664 7.32771 41.4567 7.14 41.21 6.97905 40.9936 6.84475 40.7585 6.74 40.51 6.65076 40.2966 6.58049 40.0757 6.53 39.85 6.47941 39.6634 6.44594 39.4726 6.43 39.28 6.4187 39.1336 6.4187 38.9865 6.43 38.84 6.43 38.59 6.43 38.45 6.43 38.45 6.43 38.45 6.56 38.52 6.82 38.61Z" fill="#0B6333"/><g opacity="0.5"><path d="M6.67 38.74C6.83272 38.8438 6.98658 38.9608 7.13 39.09 7.46059 39.3517 7.75337 39.658 8 40 8.12478 40.174 8.22882 40.3619 8.31 40.56 8.38515 40.7267 8.44215 40.9011 8.48 41.08 8.51519 41.2042 8.53862 41.3314 8.55 41.46 8.55 41.55 8.55 41.61 8.55 41.61 8.56453 41.4303 8.56453 41.2497 8.55 41.07 8.52466 40.8851 8.47767 40.7039 8.41 40.53 8.32915 40.3255 8.22514 40.1309 8.1 39.95 7.85881 39.5998 7.55749 39.2951 7.21 39.05 7.04124 38.9282 6.86026 38.8243 6.67 38.74Z" fill="url(#linear-gradient-7)"/></g><g opacity="0.3"><path d="M7.88 39.41C8.25484 39.5904 8.57558 39.8663 8.81 40.21L8.81 40.21C8.21818 39.3867 7.37094 38.7821 6.4 38.49 6.402 39.3561 6.63686 40.2058 7.08 40.95 6.78428 40.4356 6.66488 39.8386 6.74 39.25 6.74 39.25 8.59 40.25 8.45 41.9L8.62 41.9 8.62 41.9C8.73774 41.0026 8.46874 40.0974 7.88 39.41Z" fill="url(#linear-gradient-8)"/></g><path d="M8.1 41.11C8.1 41.11 8.1 41.28 7.75 41.11 7.4 40.94 7 40.31 7.13 39.96 7.26 39.61 8.18 40.72 8.1 41.11Z" fill="url(#linear-gradient-9)"/><path d="M5.8 47C5.8 47 3.22 47.37 3.1 49.15 3 50.14 5.15 49.89 5.8 47Z" fill="url(#linear-gradient-10)"/><path d="M5.74 47.34C5.71787 47.4651 5.6878 47.5887 5.65 47.71 5.6065 47.8711 5.54964 48.0283 5.48 48.18 5.40233 48.3677 5.30865 48.5484 5.2 48.72 5.07279 48.9209 4.92169 49.1055 4.75 49.27 4.55452 49.46 4.32343 49.6095 4.07 49.71 3.7681 49.8521 3.4132 49.8216 3.14 49.63 2.87 49.35 2.99 49.08 3.02 48.84 3.08434 48.5969 3.19653 48.3692 3.35 48.17 3.49751 47.9749 3.67665 47.8059 3.88 47.67 4.06754 47.5473 4.26488 47.4403 4.47 47.35 4.79143 47.2162 5.12686 47.1189 5.47 47.06 5.57885 47.0341 5.68901 47.0141 5.8 47ZM5.44 47.12C5.13353 47.2142 4.83575 47.3346 4.55 47.48 4.36255 47.5756 4.18502 47.6895 4.02 47.82 3.84548 47.9544 3.69065 48.1126 3.56 48.29 3.42684 48.4689 3.33157 48.673 3.28 48.89 3.27396 48.9966 3.27396 49.1034 3.28 49.21 3.28 49.27 3.28 49.34 3.28 49.36 3.29292 49.3995 3.31728 49.4343 3.35 49.46 3.47 49.59 3.75 49.57 3.96 49.46 4.18575 49.3781 4.39307 49.2524 4.57 49.09 4.72497 48.948 4.86873 48.7942 5 48.63 5.1152 48.471 5.2188 48.3039 5.31 48.13 5.45137 47.87 5.57175 47.5992 5.67 47.32L5.8 47Z" fill="#0B6333"/><g opacity="0.5"><path d="M5.53 47.19C5.37467 47.2634 5.22435 47.3469 5.08 47.44 4.77053 47.6276 4.48795 47.8564 4.24 48.12 4.1069 48.2528 3.98947 48.4004 3.89 48.56 3.80227 48.6936 3.72535 48.8341 3.66 48.98 3.61257 49.0837 3.57247 49.1907 3.54 49.3L3.54 49.42C3.561 49.2675 3.59444 49.117 3.64 48.97 3.68599 48.8148 3.7533 48.6667 3.84 48.53 3.94 48.3647 4.05733 48.2105 4.19 48.07 4.45048 47.8006 4.75481 47.5775 5.09 47.41 5.22975 47.3236 5.37701 47.2499 5.53 47.19Z" fill="url(#linear-gradient-11)"/></g><g opacity="0.3"><path d="M4.4 47.62C4.05455 47.7275 3.74165 47.9201 3.49 48.18L3.49 48.18C4.11244 47.5476 4.92281 47.1337 5.8 47 5.64576 47.7421 5.30114 48.4313 4.8 49 5.12923 48.6047 5.32212 48.1137 5.35 47.6 5.35 47.6 3.63 48.25 3.49 49.6L3.35 49.6 3.35 49.6C3.41606 48.8246 3.79521 48.1097 4.4 47.62Z" fill="url(#linear-gradient-12)"/></g><path d="M5 52.47C5 52.47 5 52.59 5 52.79 4.97293 53.0657 4.92952 53.3395 4.87 53.61 4.79542 53.9972 4.664 54.3712 4.48 54.72 4.37411 54.9185 4.2355 55.0976 4.07 55.25 3.8876 55.4069 3.65989 55.5015 3.42 55.52 3.17538 55.5506 2.92701 55.5161 2.7 55.42 2.5053 55.3257 2.36245 55.1499 2.31 54.94 2.26361 54.75 2.29227 54.5494 2.39 54.38 2.48492 54.2187 2.66342 54.1256 2.85 54.14 3.0191 54.1356 3.18473 54.1884 3.32 54.29 3.41004 54.3687 3.4642 54.4806 3.47 54.6 3.48668 54.6724 3.48668 54.7476 3.47 54.82 3.47552 54.843 3.47552 54.867 3.47 54.89 3.49472 54.8712 3.51517 54.8473 3.53 54.82 3.57423 54.7513 3.59847 54.6717 3.6 54.59 3.61367 54.4583 3.56994 54.3271 3.48 54.23 3.31074 54.0632 3.07675 53.9791 2.84 54 2.72749 53.9857 2.61321 54.003 2.51 54.05 2.40478 54.0981 2.31482 54.1742 2.25 54.27 2.12402 54.4617 2.08412 54.6975 2.14 54.92 2.20071 55.1691 2.36938 55.3781 2.6 55.49 2.85318 55.6059 3.13408 55.6475 3.41 55.61 3.68785 55.5865 3.95079 55.4743 4.16 55.29 4.33825 55.1291 4.48418 54.9356 4.59 54.72 4.77885 54.375 4.91694 54.0045 5 53.62 5.01658 53.3436 5.01658 53.0664 5 52.79 5 52.58 5 52.47 5 52.47Z" stroke="#0B6333" stroke-width="1.23" stroke-miterlimit="10" fill="url(#linear-gradient-13)"/><path d="M5.4 13.23C5.4 13.23 2.92 14 3.13 15.73 3.24 16.7 5.29 16.16 5.4 13.23Z" fill="url(#linear-gradient-14)"/><path d="M5.4 13.57C5.40845 13.6965 5.40845 13.8235 5.4 13.95 5.39174 14.1191 5.36491 14.2868 5.32 14.45 5.27764 14.6451 5.21738 14.8359 5.14 15.02 5.05339 15.234 4.93908 15.4357 4.8 15.62 4.63969 15.8307 4.43914 16.0074 4.21 16.14 3.93196 16.3239 3.57616 16.3431 3.28 16.19 2.93 16 3 15.66 3 15.42 3.02004 15.1713 3.09156 14.9296 3.21 14.71 3.31899 14.4993 3.46459 14.3097 3.64 14.15 3.80111 14.0045 3.97517 13.8739 4.16 13.76 4.42333 13.5889 4.70511 13.448 5 13.34 5.1175 13.2956 5.23775 13.2589 5.36 13.23ZM5.06 13.39C4.77255 13.5285 4.49812 13.6925 4.24 13.88 4.073 14.0005 3.91885 14.1379 3.78 14.29 3.6309 14.4472 3.50618 14.6259 3.41 14.82 3.31342 15.0171 3.2557 15.231 3.24 15.45 3.23212 15.5565 3.23212 15.6635 3.24 15.77 3.24483 15.8248 3.2657 15.877 3.3 15.92 3.32173 15.9573 3.35274 15.9883 3.39 16.01 3.59342 16.0912 3.82439 16.0609 4 15.93 4.20437 15.8203 4.38461 15.6707 4.53 15.49 4.66296 15.3155 4.78327 15.1317 4.89 14.94 4.97227 14.7684 5.04244 14.5913 5.1 14.41 5.19465 14.1367 5.26492 13.8556 5.31 13.57L5.37 13.24Z" fill="#0B6333"/><g opacity="0.5"><path d="M5.17 13.45C4.7382 13.7445 4.36232 14.1136 4.06 14.54 3.95541 14.6825 3.86813 14.8369 3.8 15 3.7315 15.1432 3.68111 15.2943 3.65 15.45 3.61794 15.558 3.59453 15.6683 3.58 15.78 3.58 15.86 3.58 15.9 3.58 15.9 3.56363 15.7471 3.56363 15.5929 3.58 15.44 3.60224 15.2879 3.64601 15.1398 3.71 15 3.77664 14.8237 3.86392 14.6558 3.97 14.5 4.17532 14.1972 4.43262 13.9331 4.73 13.72 4.86847 13.6173 5.0157 13.5269 5.17 13.45Z" fill="url(#linear-gradient-15)"/></g><g opacity="0.3"><path d="M4.13 14C3.80753 14.1514 3.53135 14.3861 3.33 14.68L3.33 14.68C3.84206 13.9825 4.5695 13.4729 5.4 13.23 5.39688 13.9736 5.19304 14.7026 4.81 15.34 5.06435 14.902 5.16634 14.3921 5.1 13.89 5.1 13.89 3.52 14.77 3.63 16.17L3.49 16.17C3.49 16.17 3.49 16.17 3.49 16.17 3.38081 15.3882 3.61406 14.5974 4.13 14Z" fill="url(#linear-gradient-16)"/></g><path d="M5.59 18.88C5.59 18.88 5.59 18.99 5.59 19.2 5.60557 19.4764 5.60557 19.7536 5.59 20.03 5.58217 20.4205 5.51818 20.8078 5.4 21.18 5.33192 21.3922 5.22324 21.5892 5.08 21.76 4.92908 21.9425 4.72136 22.0693 4.49 22.12 4.25076 22.1832 3.99924 22.1832 3.76 22.12 3.54746 22.0548 3.37283 21.902 3.28 21.7 3.20389 21.5176 3.20389 21.3124 3.28 21.13 3.34175 20.955 3.50456 20.8359 3.69 20.83 3.85767 20.806 4.02866 20.834 4.18 20.91 4.28174 20.9771 4.35345 21.0811 4.38 21.2 4.39652 21.2758 4.39652 21.3542 4.38 21.43 4.38489 21.4564 4.38489 21.4836 4.38 21.51 4.38315 21.4868 4.38315 21.4632 4.38 21.44 4.40077 21.3614 4.40077 21.2787 4.38 21.2 4.36165 21.0696 4.29356 20.9513 4.19 20.87 4.02871 20.7702 3.83839 20.7279 3.65 20.75 3.5365 20.7552 3.42628 20.7897 3.33 20.85 3.23858 20.9127 3.16598 20.9991 3.12 21.1 3.02925 21.3072 3.02925 21.5428 3.12 21.75 3.22602 21.9895 3.43008 22.1717 3.68 22.25 3.951 22.3292 4.239 22.3292 4.51 22.25 4.77681 22.1889 5.0159 22.0412 5.19 21.83 5.33697 21.6468 5.44578 21.436 5.51 21.21 5.64622 20.8207 5.72046 20.4124 5.73 20 5.71941 19.722 5.6927 19.4449 5.65 19.17 5.63479 19.0724 5.61476 18.9756 5.59 18.88Z" stroke="#0B6333" stroke-width="1.23" stroke-miterlimit="10" fill="url(#linear-gradient-17)"/><path d="M4.71 14.3C4.71 14.3 4.86 14.19 4.89 14.55 4.87134 15.0243 4.58977 15.4486 4.16 15.65 3.76 15.77 4.3 14.47 4.71 14.3Z" fill="url(#linear-gradient-18)"/><path d="M6.27 19.78C6.27 19.78 9.16 20.62 8.92 22.68 8.8 23.82 6.42 23.2 6.27 19.78Z" fill="url(#linear-gradient-19)"/><path d="M6.33 20.16C6.38166 20.4995 6.46195 20.834 6.57 21.16 6.6379 21.3758 6.72145 21.5864 6.82 21.79 6.93866 22.0143 7.0758 22.2284 7.23 22.43 7.40461 22.6449 7.61838 22.8247 7.86 22.96 8.07945 23.1073 8.35968 23.13 8.6 23.02 8.64491 22.9926 8.68262 22.9549 8.71 22.91 8.74689 22.8599 8.77093 22.8015 8.78 22.74 8.7886 22.6135 8.7886 22.4865 8.78 22.36 8.76458 22.1023 8.69651 21.8504 8.58 21.62 8.47435 21.3944 8.33621 21.1855 8.17 21 8.0089 20.8266 7.83141 20.6692 7.64 20.53 7.32495 20.3124 6.99014 20.1249 6.64 19.97 6.51298 19.9067 6.38281 19.85 6.25 19.8ZM6.69 19.91C7.03903 20.0391 7.37407 20.2033 7.69 20.4 7.90318 20.5353 8.10396 20.6893 8.29 20.86 8.49675 21.0451 8.66937 21.2651 8.8 21.51 8.93615 21.7637 9.01789 22.0429 9.04 22.33 9.04 22.61 9.09 22.95 8.74 23.21 8.5722 23.3117 8.3738 23.3507 8.18 23.32 8.004 23.2958 7.83427 23.2381 7.68 23.15 7.41546 22.9933 7.18439 22.786 7 22.54 6.83742 22.3282 6.70297 22.0963 6.6 21.85 6.51358 21.6356 6.44339 21.4149 6.39 21.19 6.33914 21.0001 6.30567 20.806 6.29 20.61 6.28159 20.4635 6.28159 20.3165 6.29 20.17 6.29 19.93 6.29 19.79 6.29 19.79 6.42901 19.8215 6.56594 19.8616 6.7 19.91Z" fill="#0B6333"/><g opacity="0.5"><path d="M6.54 20C6.70147 20.1056 6.8552 20.2225 7 20.35 7.31459 20.6172 7.59056 20.9269 7.82 21.27 7.94533 21.4436 8.04941 21.6316 8.13 21.83 8.20795 21.9966 8.26828 22.1709 8.31 22.35 8.34056 22.4752 8.36393 22.6021 8.38 22.73L8.38 22.88C8.39721 22.7004 8.39721 22.5196 8.38 22.34 8.35561 22.1549 8.30859 21.9736 8.24 21.8 8.1607 21.5966 8.06014 21.4022 7.94 21.22 7.69998 20.8688 7.39847 20.5639 7.05 20.32 6.89182 20.1956 6.72086 20.0883 6.54 20Z" fill="url(#linear-gradient-20)"/></g><g opacity="0.3"><path d="M7.75 20.71C8.12563 20.8892 8.44666 21.1654 8.68 21.51L8.68 21.51C8.0898 20.6851 7.24195 20.08 6.27 19.79 6.28838 20.6575 6.54058 21.5039 7 22.24 6.70711 21.7282 6.58783 21.1353 6.66 20.55 6.66 20.55 8.5 21.55 8.37 23.2L8.54 23.2C8.54 23.2 8.54 23.2 8.54 23.2 8.64547 22.2952 8.35783 21.3885 7.75 20.71Z" fill="url(#linear-gradient-21)"/></g><path d="M8 22.41C8 22.41 8 22.58 7.66 22.41 7.32 22.24 6.9 21.61 7.03 21.26 7.16 20.91 8.05 22 8 22.41Z" fill="url(#linear-gradient-22)"/><path d="M4.92 5.26C4.92 5.26 4.92 5.37 4.92 5.57 4.95845 5.84603 5.01187 6.11976 5.08 6.39 5.16989 6.77537 5.31471 7.14583 5.51 7.49 5.63979 7.68932 5.80603 7.86235 6 8 6.18802 8.15105 6.41909 8.23858 6.66 8.25 6.90317 8.27502 7.14856 8.23354 7.37 8.13 7.56507 8.03353 7.70512 7.85294 7.75 7.64 7.79446 7.44875 7.76215 7.24769 7.66 7.08 7.55915 6.92093 7.37748 6.83203 7.19 6.85 7.01761 6.84408 6.84834 6.89698 6.71 7 6.62118 7.08278 6.57052 7.19859 6.57 7.32 6.56689 7.39967 6.5841 7.47882 6.62 7.55L6.62 7.62C6.59685 7.60342 6.57658 7.58315 6.56 7.56 6.51793 7.49034 6.49387 7.41129 6.49 7.33 6.49528 7.20258 6.55323 7.08306 6.65 7 6.78925 6.871 6.97029 6.79646 7.16 6.79 7.38324 6.74657 7.61257 6.82683 7.76 7 7.88897 7.18661 7.93594 7.41787 7.89 7.64 7.83774 7.88954 7.67623 8.10244 7.45 8.22 7.19585 8.34465 6.91111 8.39326 6.63 8.36 6.35433 8.34287 6.09144 8.23771 5.88 8.06 5.69216 7.90458 5.53598 7.71445 5.42 7.5 5.22991 7.158 5.08854 6.79112 5 6.41 4.94657 6.13582 4.90983 5.85864 4.89 5.58 4.92 5.38 4.92 5.26 4.92 5.26Z" stroke="#0B6333" stroke-width="1.23" stroke-miterlimit="10" fill="url(#linear-gradient-23)"/><path d="M6.2 28.34C6.2 28.34 3.72 29.07 3.92 30.84 4 31.81 6.08 31.28 6.2 28.34Z" fill="url(#linear-gradient-24)"/><path d="M6.2 28.67C6.20822 28.7965 6.20822 28.9235 6.2 29.05 6.18838 29.2154 6.1616 29.3795 6.12 29.54 6.0771 29.735 6.01686 29.9257 5.94 30.11 5.85182 30.3232 5.73762 30.5248 5.6 30.71 5.43676 30.9217 5.23274 31.0985 5 31.23 4.70884 31.4464 4.31846 31.4737 4 31.3 3.68 31.06 3.74 30.78 3.73 30.53 3.77208 30.2778 3.86386 30.0364 4 29.82 4.11355 29.6095 4.26238 29.4201 4.44 29.26 4.60209 29.1127 4.77601 28.9789 4.96 28.86 5.24311 28.6863 5.54505 28.5454 5.86 28.44 5.97778 28.3964 6.09798 28.3597 6.22 28.33ZM5.86 28.49C5.55878 28.6342 5.27097 28.8048 5 29 4.83697 29.1179 4.68621 29.2519 4.55 29.4 4.39875 29.5554 4.27378 29.7344 4.18 29.93 4.08039 30.126 4.0225 30.3405 4.01 30.56 4.00257 30.6665 4.00257 30.7735 4.01 30.88 4.01 30.94 4.01 31 4.07 31.03 4.09048 31.0682 4.12179 31.0995 4.16 31.12 4.34978 31.225 4.58022 31.225 4.77 31.12 4.97394 31.0055 5.15389 30.8527 5.3 30.67 5.46083 30.4624 5.59832 30.2377 5.71 30 5.79853 29.8266 5.87213 29.6459 5.93 29.46 6.02603 29.1872 6.09634 28.9059 6.14 28.62L6.2 28.29Z" fill="#0B6333"/><g opacity="0.5"><path d="M6 28.55C5.86054 28.6416 5.72695 28.7418 5.6 28.85 5.32806 29.0794 5.08913 29.3452 4.89 29.64 4.7826 29.7896 4.69205 29.9505 4.62 30.12 4.55372 30.2606 4.5034 30.4082 4.47 30.56 4.44026 30.668 4.42018 30.7784 4.41 30.89 4.40692 30.9299 4.40692 30.9701 4.41 31.01 4.39435 30.8571 4.39435 30.7029 4.41 30.55 4.434 30.3886 4.47766 30.2308 4.54 30.08 4.60621 29.9035 4.69351 29.7356 4.8 29.58 5.00911 29.277 5.26972 29.013 5.57 28.8 5.70488 28.7029 5.84889 28.6192 6 28.55Z" fill="url(#linear-gradient-25)"/></g><g opacity="0.3"><path d="M4.93 29.13C4.60753 29.2814 4.33135 29.5161 4.13 29.81L4.13 29.81C4.63836 29.1045 5.36637 28.5875 6.2 28.34 6.19973 29.0858 5.99944 29.8179 5.62 30.46 5.87095 30.0172 5.96934 29.5042 5.9 29 5.9 29 4.32 29.88 4.43 31.28L4.29 31.28C4.18675 30.5048 4.41963 29.7225 4.93 29.13Z" fill="url(#linear-gradient-26)"/></g><path d="M5.54 50.92C5.54 50.92 8.44 51.76 8.19 53.83 8.06 55 5.68 54.33 5.54 50.92Z" fill="url(#linear-gradient-27)"/><path d="M5.6 51.3C5.64743 51.6394 5.72439 51.974 5.83 52.3 5.89806 52.5157 5.98161 52.7263 6.08 52.93 6.19821 53.1546 6.33537 53.3687 6.49 53.57 6.66041 53.7851 6.87098 53.9651 7.11 54.1 7.32877 54.2492 7.61004 54.2721 7.85 54.16 7.91968 54.1293 7.97384 54.0715 8 54 8 54 8.05 53.89 8.07 53.83 8.07876 53.7035 8.07876 53.5765 8.07 53.45 8.05375 53.1924 7.98573 52.9407 7.87 52.71 7.76115 52.4814 7.61593 52.272 7.44 52.09 7.27908 51.9164 7.10157 51.759 6.91 51.62 6.59253 51.4063 6.25808 51.219 5.91 51.06L5.51 50.89ZM6 51C6.34976 51.1274 6.68498 51.2917 7 51.49 7.21446 51.6235 7.41541 51.7775 7.6 51.95 7.80347 52.1357 7.97272 52.3557 8.1 52.6 8.23456 52.8543 8.31621 53.1333 8.34 53.42 8.34 53.7 8.39 54.04 8.03 54.3 7.8622 54.4017 7.6638 54.4407 7.47 54.41 7.29479 54.3825 7.12563 54.325 6.97 54.24 6.70202 54.0842 6.46751 53.8769 6.28 53.63 6.11918 53.4171 5.98486 53.1854 5.88 52.94 5.79273 52.7259 5.72251 52.5052 5.67 52.28 5.61885 52.0936 5.58537 51.9027 5.57 51.71 5.55874 51.5636 5.55874 51.4165 5.57 51.27 5.57 51.02 5.57 50.88 5.57 50.88 5.71578 50.9106 5.85942 50.9507 6 51Z" fill="#0B6333"/><g opacity="0.5"><path d="M5.81 51.17C5.97195 51.2749 6.12573 51.3919 6.27 51.52 6.58423 51.7876 6.86015 52.0972 7.09 52.44 7.21396 52.6109 7.31797 52.7954 7.4 52.99 7.47109 53.1583 7.52796 53.3322 7.57 53.51 7.60269 53.6348 7.62609 53.7618 7.64 53.89L7.64 54.04C7.65471 53.8603 7.65471 53.6797 7.64 53.5 7.61849 53.3294 7.57825 53.1618 7.52 53 7.43892 52.7956 7.33492 52.601 7.21 52.42 6.96908 52.0667 6.66781 51.7587 6.32 51.51 6.16253 51.3789 5.99157 51.2649 5.81 51.17Z" fill="url(#linear-gradient-28)"/></g><g opacity="0.3"><path d="M7 51.84C7.37458 52.0208 7.69523 52.2966 7.93 52.64L8 52.64C7.40834 51.8122 6.55629 51.2066 5.58 50.92 5.58745 51.7867 5.82562 52.6358 6.27 53.38 5.96581 52.8687 5.84252 52.2699 5.92 51.68 5.92 51.68 7.76 52.68 7.63 54.34L7.8 54.34 7.8 54.34C7.90311 53.4306 7.6119 52.5206 7 51.84Z" fill="url(#linear-gradient-29)"/></g><path d="M7.24 53.54C7.24 53.54 7.24 53.71 6.9 53.54 6.56 53.37 6.15 52.74 6.28 52.39 6.41 52.04 7.32 53.15 7.24 53.54Z" fill="url(#linear-gradient-30)"/><path d="M4.38 59.59C4.38 59.59 1.79 60 1.67 61.74 1.61 62.71 3.73 62.47 4.38 59.59Z" fill="url(#linear-gradient-31)"/><path d="M4.32 59.91C4.29787 60.0351 4.26781 60.1587 4.23 60.28 4.18542 60.4454 4.12514 60.6061 4.05 60.76 3.96825 60.9458 3.87473 61.1261 3.77 61.3 3.63851 61.4977 3.48777 61.682 3.32 61.85 3.12183 62.0341 2.89128 62.1799 2.64 62.28 2.33772 62.42 1.98392 62.3896 1.71 62.2 1.44 61.93 1.55 61.65 1.59 61.41 1.65735 61.1662 1.77297 60.9383 1.93 60.74 2.07752 60.5414 2.26062 60.3718 2.47 60.24 2.63713 60.1212 2.8145 60.0174 3 59.93 3.32087 59.7946 3.65649 59.6973 4 59.64 4.12516 59.6114 4.25212 59.5914 4.38 59.58ZM4 59.69C3.68992 59.7872 3.3888 59.911 3.1 60.06 2.91824 60.1561 2.74436 60.2665 2.58 60.39 2.40574 60.5247 2.25094 60.6829 2.12 60.86 1.9866 61.0387 1.8913 61.243 1.84 61.46 1.83251 61.5665 1.83251 61.6735 1.84 61.78 1.84 61.84 1.84 61.91 1.84 61.93 1.85292 61.9695 1.87728 62.0043 1.91 62.03 2.09978 62.135 2.33022 62.135 2.52 62.03 2.74209 61.9467 2.94587 61.821 3.12 61.66 3.28161 61.5077 3.432 61.344 3.57 61.17 3.68418 61.0103 3.78773 60.8433 3.88 60.67 4.02319 60.4109 4.14364 60.1399 4.24 59.86L4.36 59.55Z" fill="#0B6333"/><g opacity="0.5"><path d="M4.11 59.76C3.95397 59.832 3.80355 59.9155 3.66 60.01 3.34934 60.1959 3.06654 60.4249 2.82 60.69 2.6859 60.8182 2.56833 60.9627 2.47 61.12 2.37734 61.2506 2.30016 61.3916 2.24 61.54 2.19094 61.643 2.1508 61.7501 2.12 61.86L2.12 61.98C2.14174 61.8277 2.17517 61.6772 2.22 61.53 2.27023 61.3764 2.3373 61.2288 2.42 61.09 2.52159 60.9258 2.6388 60.7717 2.77 60.63 3.03098 60.3612 3.33521 60.1381 3.67 59.97 3.80938 59.8857 3.95677 59.8153 4.11 59.76Z" fill="url(#linear-gradient-32)"/></g><g opacity="0.3"><path d="M3 60.19C2.65065 60.3004 2.33442 60.4964 2.08 60.76L2.08 60.76C2.70414 60.1299 3.5137 59.7164 4.39 59.58 4.23708 60.3226 3.8923 61.0121 3.39 61.58 3.73775 61.1945 3.9517 60.7069 4 60.19 4 60.19 2.27 60.84 2.14 62.19L2 62.19 2 62.19C2.05036 61.4159 2.4109 60.6948 3 60.19Z" fill="url(#linear-gradient-33)"/></g><path d="M3.52 68C3.52 68 3.52 68.12 3.52 68.31 3.48803 68.5856 3.44129 68.8594 3.38 69.13 3.31049 69.5235 3.1824 69.9044 3 70.26 2.89375 70.461 2.75137 70.6406 2.58 70.79 2.39653 70.9451 2.1694 71.0395 1.93 71.06 1.6854 71.0888 1.4375 71.0543 1.21 70.96 1.01057 70.8692 0.863345 70.6925 0.81 70.48 0.762549 70.29 0.79126 70.0891 0.89 69.92 0.984923 69.7587 1.16342 69.6656 1.35 69.68 1.51877 69.6778 1.68369 69.7305 1.82 69.83 1.91061 69.9124 1.9646 70.0276 1.97 70.15 1.9851 70.2225 1.9851 70.2974 1.97 70.37 1.97342 70.3932 1.97342 70.4168 1.97 70.44 1.99349 70.4199 2.01373 70.3963 2.03 70.37 2.03733 70.2953 2.02706 70.22 2 70.15 2.01102 70.0168 1.96357 69.8854 1.87 69.79 1.7248 69.6668 1.54042 69.5994 1.35 69.6 1.24167 69.5729 1.12833 69.5729 1.02 69.6 0.913799 69.6512 0.823823 69.7308 0.76 69.83 0.63568 70.0186 0.595804 70.2507 0.65 70.47 0.709406 70.7197 0.878469 70.9292 1.11 71.04 1.36303 71.1564 1.64408 71.1981 1.92 71.16 2.19435 71.1344 2.45348 71.0224 2.66 70.84 2.84297 70.681 2.99253 70.4873 3.1 70.27 3.27267 69.906 3.39061 69.5185 3.45 69.12 3.4927 68.8451 3.51941 68.568 3.53 68.29 3.53 68.14 3.52 68 3.52 68Z" stroke="#0B6333" stroke-width="1.23" stroke-miterlimit="10" fill="url(#linear-gradient-34)"/><path d="M4.83 78.78C4.83 78.78 4.83 78.89 4.83 79.09 4.85671 79.3657 4.90013 79.6395 4.96 79.91 5.04478 80.2923 5.18635 80.6597 5.38 81 5.48454 81.1993 5.62332 81.3787 5.79 81.53 5.97347 81.6851 6.2006 81.7795 6.44 81.8 6.68458 81.827 6.93204 81.7927 7.16 81.7 7.3556 81.6068 7.49884 81.4305 7.55 81.22 7.59535 81.0299 7.56675 80.8297 7.47 80.66 7.37169 80.499 7.18662 80.4123 7 80.44 6.83067 80.4339 6.66451 80.487 6.53 80.59 6.44457 80.671 6.39431 80.7823 6.39 80.9 6.37437 80.9759 6.37437 81.0541 6.39 81.13 6.38542 81.1531 6.38542 81.1769 6.39 81.2 6.36357 81.1831 6.3427 81.1587 6.33 81.13 6.28982 81.0631 6.26585 80.9878 6.26 80.91 6.25274 80.7773 6.29965 80.6474 6.39 80.55 6.55884 80.4052 6.77821 80.3333 7 80.35 7.11243 80.3394 7.22575 80.3566 7.33 80.4 7.43495 80.4485 7.5248 80.5245 7.59 80.62 7.71371 80.8126 7.75344 81.0474 7.7 81.27 7.63929 81.5191 7.47063 81.7281 7.24 81.84 6.98383 81.9578 6.69919 81.9995 6.42 81.96 6.14512 81.9365 5.88536 81.8242 5.68 81.64 5.5012 81.4796 5.35518 81.286 5.25 81.07 5.07429 80.7064 4.95299 80.3189 4.89 79.92 4.84663 79.6452 4.81991 79.368 4.81 79.09 4.82 78.89 4.83 78.78 4.83 78.78Z" stroke="#0B6333" stroke-width="1.23" stroke-miterlimit="10" fill="url(#linear-gradient-35)"/><path d="M4.12 63.49C4.12 63.49 7 64.34 6.77 66.4 6.64 67.53 4.26 66.9 4.12 63.49Z" fill="url(#linear-gradient-36)"/><path d="M4.18 63.87C4.23399 64.209 4.31423 64.5434 4.42 64.87 4.48796 65.0858 4.57152 65.2963 4.67 65.5 4.78665 65.7255 4.9239 65.9398 5.08 66.14 5.24806 66.3574 5.45912 66.5378 5.7 66.67 5.91945 66.8173 6.19968 66.84 6.44 66.73 6.48632 66.7044 6.52446 66.6663 6.55 66.62 6.58896 66.5711 6.61324 66.5121 6.62 66.45 6.69387 66.0682 6.63383 65.6726 6.45 65.33 6.33092 65.0965 6.17942 64.881 6 64.69 5.83758 64.518 5.66022 64.3607 5.47 64.22 5.15335 64.005 4.81878 63.8176 4.47 63.66 4.22 63.54 4.07 63.49 4.07 63.49ZM4.54 63.61C4.88908 63.739 5.22414 63.9032 5.54 64.1 5.75345 64.2349 5.95427 64.3889 6.14 64.56 6.34475 64.7445 6.51418 64.9648 6.64 65.21 6.77482 65.4642 6.85648 65.7432 6.88 66.03 6.88 66.31 6.93 66.64 6.58 66.91 6.41189 67.0109 6.21378 67.0498 6.02 67.02 5.84464 66.9931 5.67539 66.9356 5.52 66.85 5.25308 66.6969 5.01868 66.4931 4.83 66.25 4.66769 66.0345 4.53329 65.7993 4.43 65.55 4.33984 65.3369 4.26955 65.116 4.22 64.89 4.16885 64.7036 4.13537 64.5127 4.12 64.32 4.11205 64.1734 4.11205 64.0266 4.12 63.88 4.12 63.63 4.12 63.49 4.12 63.49 4.26251 63.5248 4.40277 63.5682 4.54 63.62Z" fill="#0B6333"/><g opacity="0.5"><path d="M4.39 63.74C4.55123 63.8496 4.70491 63.9698 4.85 64.1 5.16881 64.362 5.44833 64.6685 5.68 65.01 5.80709 65.1825 5.91129 65.3707 5.99 65.57 6.0658 65.7374 6.12606 65.9115 6.17 66.09 6.20037 66.2153 6.22374 66.3421 6.24 66.47L6.24 66.62C6.25623 66.4404 6.25623 66.2596 6.24 66.08 6.21879 65.8943 6.17166 65.7126 6.1 65.54 6.01948 65.3353 5.91544 65.1407 5.79 64.96 5.55275 64.5896 5.25137 64.2646 4.9 64 4.73893 63.8968 4.56811 63.8098 4.39 63.74Z" fill="url(#linear-gradient-37)"/></g><g opacity="0.3"><path d="M5.6 64.41C5.97849 64.589 6.30283 64.865 6.54 65.21L6.54 65.21C5.94779 64.3828 5.09595 63.7773 4.12 63.49 4.11597 64.3727 4.35094 65.24 4.8 66 4.50287 65.4861 4.38338 64.8886 4.46 64.3 4.46 64.3 6.3 65.3 6.16 66.96L6.33 66.96 6.33 66.96C6.46969 66.0442 6.20313 65.1131 5.6 64.41Z" fill="url(#linear-gradient-38)"/></g><path d="M5.82 66.11C5.82 66.11 5.82 66.28 5.48 66.11 5.14 65.94 4.73 65.31 4.85 64.96 4.97 64.61 5.9 65.72 5.82 66.11Z" fill="url(#linear-gradient-39)"/><path d="M4.78 77.11C4.78 77.11 2.2 77.49 2.08 79.26 2 80.24 4.13 80 4.78 77.11Z" fill="url(#linear-gradient-40)"/><path d="M4.72 77.44C4.7008 77.5657 4.67069 77.6895 4.63 77.81 4.58886 77.9719 4.53192 78.1293 4.46 78.28 4.37796 78.4656 4.28445 78.646 4.18 78.82 4.05168 79.017 3.90064 79.1983 3.73 79.36 3.5338 79.5466 3.30272 79.6928 3.05 79.79 2.74676 79.9368 2.38815 79.9101 2.11 79.72 1.84 79.45 1.96 79.17 1.99 78.93 2.05999 78.6872 2.17536 78.4598 2.33 78.26 2.47645 78.0667 2.65587 77.9009 2.86 77.77 3.04218 77.6443 3.23648 77.5371 3.44 77.45 3.76068 77.3141 4.09636 77.2168 4.44 77.16 4.56507 77.1309 4.69206 77.1109 4.82 77.1ZM4.42 77.21C4.10983 77.307 3.8087 77.4308 3.52 77.58 3.33857 77.6804 3.16476 77.7941 3 77.92 2.82531 78.0542 2.67044 78.2125 2.54 78.39 2.40508 78.5678 2.30962 78.7724 2.26 78.99 2.25145 79.0965 2.25145 79.2035 2.26 79.31 2.26 79.37 2.26 79.44 2.26 79.46 2.27292 79.4995 2.29728 79.5343 2.33 79.56 2.45 79.69 2.73 79.67 2.95 79.56 3.17033 79.4732 3.37348 79.3479 3.55 79.19 3.71035 79.0471 3.86071 78.8934 4 78.73 4.11317 78.5696 4.21669 78.4027 4.31 78.23 4.451 77.9733 4.57137 77.7058 4.67 77.43L4.78 77.12Z" fill="#0B6333"/><g opacity="0.5"><path d="M4.51 77.29C4.3547 77.3634 4.20438 77.4469 4.06 77.54 3.75188 77.7295 3.46955 77.9581 3.22 78.22 3.0884 78.3505 2.97107 78.4946 2.87 78.65 2.78227 78.7836 2.70535 78.9241 2.64 79.07 2.58914 79.1688 2.54892 79.2727 2.52 79.38L2.52 79.5C2.53919 79.3439 2.57266 79.1899 2.62 79.04 2.66863 78.8858 2.73579 78.738 2.82 78.6 2.91716 78.4353 3.0311 78.2812 3.16 78.14 3.42172 77.8721 3.72579 77.6491 4.06 77.48 4.2042 77.4037 4.35477 77.3401 4.51 77.29Z" fill="url(#linear-gradient-41)"/></g><g opacity="0.3"><path d="M3.38 77.72C3.03083 77.8308 2.71469 78.0267 2.46 78.29L2.46 78.29C3.08634 77.6648 3.89535 77.255 4.77 77.12 4.61576 77.8621 4.27114 78.5513 3.77 79.12 4.09663 78.727 4.28932 78.2401 4.32 77.73 4.32 77.73 2.6 78.38 2.45 79.78L2.31 79.78 2.31 79.78C2.36189 78.9736 2.75014 78.2262 3.38 77.72Z" fill="url(#linear-gradient-42)"/></g><path d="M5.81 86.62C5.81 86.62 8.7 87.46 8.47 89.52 8.33 90.66 6 90 5.81 86.62Z" fill="url(#linear-gradient-43)"/><path d="M5.87 87C5.9163 87.3405 5.99671 87.6755 6.11 88 6.17705 88.2161 6.26063 88.4267 6.36 88.63 6.48201 88.8546 6.6225 89.0687 6.78 89.27 6.94966 89.4858 7.16038 89.666 7.4 89.8 7.61945 89.9473 7.89968 89.97 8.14 89.86 8.18632 89.8344 8.22446 89.7963 8.25 89.75 8.25 89.75 8.31 89.65 8.32 89.58 8.33039 89.4535 8.33039 89.3265 8.32 89.2 8.30167 88.9427 8.23376 88.6915 8.12 88.46 8.00711 88.2368 7.86225 88.0313 7.69 87.85 7.52704 87.6748 7.34604 87.5172 7.15 87.38 6.83479 87.1598 6.50005 86.969 6.15 86.81 5.9 86.69 5.75 86.64 5.75 86.64ZM6.23 86.74C6.57997 86.8711 6.91515 87.0387 7.23 87.24 7.44342 87.375 7.64424 87.5289 7.83 87.7 8.03752 87.8844 8.21026 88.1046 8.34 88.35 8.47508 88.6041 8.55676 88.8832 8.58 89.17 8.58 89.45 8.63 89.79 8.28 90.05 8.10977 90.1549 7.90706 90.1941 7.71 90.16 7.53383 90.1366 7.36396 90.0788 7.21 89.99 6.94123 89.8353 6.70652 89.6278 6.52 89.38 6.36066 89.1661 6.22645 88.9346 6.12 88.69 6.04633 88.4645 5.9895 88.2339 5.95 88 5.90038 87.8132 5.86693 87.6225 5.85 87.43 5.83846 87.2836 5.83846 87.1364 5.85 86.99 5.85 86.74 5.85 86.61 5.85 86.61 5.85 86.61 6 86.66 6.23 86.75Z" fill="#0B6333"/><g opacity="0.5"><path d="M6.08 86.87C6.24227 86.9744 6.39608 87.0915 6.54 87.22 6.85858 87.4861 7.13801 87.7958 7.37 88.14 7.49301 88.3151 7.59693 88.5028 7.68 88.7 7.75508 88.8668 7.81207 89.0411 7.85 89.22 7.88404 89.3445 7.90746 89.4716 7.92 89.6L7.92 89.74C7.93751 89.5638 7.93751 89.3862 7.92 89.21 7.89632 89.0216 7.84929 88.8368 7.78 88.66 7.70271 88.4557 7.60204 88.2611 7.48 88.08 7.23941 87.7265 6.93809 87.4184 6.59 87.17 6.43009 87.0537 6.25929 86.9533 6.08 86.87Z" fill="url(#linear-gradient-44)"/></g><g opacity="0.3"><path d="M7.29 87.55C7.66339 87.728 7.98392 88.0003 8.22 88.34L8.22 88.34C7.6267 87.5139 6.77527 86.9087 5.8 86.62 5.80538 87.4857 6.04001 88.3345 6.48 89.08 6.18358 88.5658 6.06413 87.9686 6.14 87.38 6.14 87.38 8 88.41 7.86 90L8 90C8 90 8 90 8 90 8.11435 89.1201 7.85709 88.2324 7.29 87.55Z" fill="url(#linear-gradient-45)"/></g><path d="M7.51 89.25C7.51 89.25 7.51 89.42 7.17 89.25 6.83 89.08 6.42 88.44 6.55 88.1 6.68 87.76 7.59 88.85 7.51 89.25Z" fill="url(#linear-gradient-46)"/></g></g></g></svg>